<svg xmlns="http://www.w3.org/2000/svg" viewBox="0 0 720 400" font-family="system-ui,Segoe UI,Roboto,sans-serif">
<title>Fitness over generations</title>
<rect width="720" height="400" fill="#ffffff"/>
<text x="56" y="26" font-size="16" font-weight="700" fill="#1f2937">Đường cong fitness qua các thế hệ</text>
<line x1="56" y1="352.0" x2="590" y2="352.0" stroke="#d1d5db" stroke-width="1"/><text x="48" y="356.0" font-size="11" text-anchor="end" fill="#6b7280">-0.04</text>
<line x1="56" y1="276.0" x2="590" y2="276.0" stroke="#d1d5db" stroke-width="1"/><text x="48" y="280.0" font-size="11" text-anchor="end" fill="#6b7280">0.22</text>
<line x1="56" y1="200.0" x2="590" y2="200.0" stroke="#d1d5db" stroke-width="1"/><text x="48" y="204.0" font-size="11" text-anchor="end" fill="#6b7280">0.48</text>
<line x1="56" y1="124.0" x2="590" y2="124.0" stroke="#d1d5db" stroke-width="1"/><text x="48" y="128.0" font-size="11" text-anchor="end" fill="#6b7280">0.74</text>
<line x1="56" y1="48.0" x2="590" y2="48.0" stroke="#d1d5db" stroke-width="1"/><text x="48" y="52.0" font-size="11" text-anchor="end" fill="#6b7280">1.00</text>
<text x="56.0" y="370" font-size="11" text-anchor="middle" fill="#6b7280">0</text>
<text x="115.3" y="370" font-size="11" text-anchor="middle" fill="#6b7280">1</text>
<text x="174.7" y="370" font-size="11" text-anchor="middle" fill="#6b7280">2</text>
<text x="234.0" y="370" font-size="11" text-anchor="middle" fill="#6b7280">3</text>
<text x="293.3" y="370" font-size="11" text-anchor="middle" fill="#6b7280">4</text>
<text x="352.7" y="370" font-size="11" text-anchor="middle" fill="#6b7280">5</text>
<text x="412.0" y="370" font-size="11" text-anchor="middle" fill="#6b7280">6</text>
<text x="471.3" y="370" font-size="11" text-anchor="middle" fill="#6b7280">7</text>
<text x="530.7" y="370" font-size="11" text-anchor="middle" fill="#6b7280">8</text>
<text x="590.0" y="370" font-size="11" text-anchor="middle" fill="#6b7280">9</text>
<text x="323" y="390" font-size="12" text-anchor="middle" fill="#6b7280">Thế hệ</text>
<polyline fill="none" stroke="#9333ea" stroke-width="2.5" points="56.0,352.0 115.3,313.5 174.7,228.1 234.0,181.3 293.3,162.6 352.7,193.8 412.0,157.3 471.3,123.0 530.7,181.4 590.0,126.2"/><circle cx="56.0" cy="352.0" r="3" fill="#9333ea"/><circle cx="115.3" cy="313.5" r="3" fill="#9333ea"/><circle cx="174.7" cy="228.1" r="3" fill="#9333ea"/><circle cx="234.0" cy="181.3" r="3" fill="#9333ea"/><circle cx="293.3" cy="162.6" r="3" fill="#9333ea"/><circle cx="352.7" cy="193.8" r="3" fill="#9333ea"/><circle cx="412.0" cy="157.3" r="3" fill="#9333ea"/><circle cx="471.3" cy="123.0" r="3" fill="#9333ea"/><circle cx="530.7" cy="181.4" r="3" fill="#9333ea"/><circle cx="590.0" cy="126.2" r="3" fill="#9333ea"/>
<polyline fill="none" stroke="#2563eb" stroke-width="2.5" points="56.0,177.2 115.3,119.0 174.7,118.8 234.0,118.6 293.3,104.5 352.7,104.3 412.0,104.3 471.3,104.3 530.7,104.2 590.0,104.2"/><circle cx="56.0" cy="177.2" r="3" fill="#2563eb"/><circle cx="115.3" cy="119.0" r="3" fill="#2563eb"/><circle cx="174.7" cy="118.8" r="3" fill="#2563eb"/><circle cx="234.0" cy="118.6" r="3" fill="#2563eb"/><circle cx="293.3" cy="104.5" r="3" fill="#2563eb"/><circle cx="352.7" cy="104.3" r="3" fill="#2563eb"/><circle cx="412.0" cy="104.3" r="3" fill="#2563eb"/><circle cx="471.3" cy="104.3" r="3" fill="#2563eb"/><circle cx="530.7" cy="104.2" r="3" fill="#2563eb"/><circle cx="590.0" cy="104.2" r="3" fill="#2563eb"/>
<rect x="608" y="48" width="12" height="12" fill="#2563eb"/><text x="624" y="59" font-size="12" fill="#1f2937">best</text>
<rect x="608" y="68" width="12" height="12" fill="#9333ea"/><text x="624" y="79" font-size="12" fill="#1f2937">mean</text>
</svg>
